<svg width="24" height="24" viewBox="0 0 24 24" fill="none" xmlns="http://www.w3.org/2000/svg">
<g clip-path="url(#clip0)">
<path d="M22.6509 10.1178L22.6884 10.126H6.62869L11.6773 5.06628C11.9245 4.81925 12.0601 4.48462 12.0601 4.1334C12.0601 3.78218 11.9245 3.44989 11.6773 3.20228L10.8917 2.41632C10.6447 2.1693 10.3155 2.03271 9.96449 2.03271C9.61327 2.03271 9.28391 2.16832 9.03688 2.41535L0.382639 11.0688C0.134639 11.3168 -0.000970382 11.6472 5.22758e-06 11.9986C-0.000970382 12.3519 0.134639 12.6825 0.382639 12.9301L9.03688 21.5843C9.28391 21.8312 9.61308 21.967 9.96449 21.967C10.3155 21.967 10.6447 21.831 10.8917 21.5843L11.6773 20.7984C11.9245 20.5517 12.0601 20.2224 12.0601 19.8712C12.0601 19.5201 11.9245 19.2081 11.6773 18.9613L6.57171 13.8733H22.6689C23.3922 13.8733 24 13.2499 24 12.527V11.4153C24 10.6924 23.3742 10.1178 22.6509 10.1178Z" fill="black"/>
</g>
<defs>
<clipPath id="clip0">
<rect width="24" height="24" fill="white"/>
</clipPath>
</defs>
</svg>
